<svg xmlns="http://www.w3.org/2000/svg" width="200" height="37.082" viewBox="0 0 200 37.082">
  <g id="グループ化_229" data-name="グループ化 229" transform="translate(-650.268 -468.28)">
    <g id="グループ化_227" data-name="グループ化 227">
      <path id="パス_92" data-name="パス 92" d="M723.038,499.867a2.344,2.344,0,0,1,0,3.1,1.82,1.82,0,0,1-1.382.639,1.757,1.757,0,0,1-.44-.055,1.608,1.608,0,0,1-.366-.139,2.4,2.4,0,0,1-.268-.171,1.561,1.561,0,0,1-.166-.139l-.061-.064v.483h-.835v-6.133h.835V499.8c.038-.04.093-.092.163-.158a1.972,1.972,0,0,1,.446-.257,1.636,1.636,0,0,1,.692-.158A1.82,1.82,0,0,1,723.038,499.867Zm-.623,2.543a1.513,1.513,0,0,0,0-1.98,1.076,1.076,0,0,0-1.692,0,1.509,1.509,0,0,0,0,1.98,1.078,1.078,0,0,0,1.692,0Z" fill="gray"/>
      <path id="パス_93" data-name="パス 93" d="M727.034,503.522l-1.637-4.2h.88l1.175,3.066,1.175-3.066h.879l-1.8,4.64a3.439,3.439,0,0,1-.615,1.091,1.025,1.025,0,0,1-.764.312,2.084,2.084,0,0,1-.315-.022,1.088,1.088,0,0,1-.217-.047l-.057-.017v-.791a1.167,1.167,0,0,0,.421.09q.479,0,.712-.616Z" fill="gray"/>
      <path id="パス_94" data-name="パス 94" d="M738.449,497.389h.921v6.133h-.921Z" fill="gray"/>
      <path id="パス_95" data-name="パス 95" d="M746.5,501.3a1.186,1.186,0,0,0-.444-.3,5.3,5.3,0,0,0-.6-.2,6.554,6.554,0,0,1-.663-.216,3.2,3.2,0,0,1-.6-.308,1.336,1.336,0,0,1-.444-.511,1.71,1.71,0,0,1-.172-.8,1.548,1.548,0,0,1,.52-1.187,2,2,0,0,1,1.408-.476,2.322,2.322,0,0,1,.628.083,2.177,2.177,0,0,1,.5.2,3.091,3.091,0,0,1,.348.226,1.447,1.447,0,0,1,.219.2l.066.085-.585.616a.659.659,0,0,1-.048-.057.854.854,0,0,0-.139-.129,1.734,1.734,0,0,0-.233-.158,1.453,1.453,0,0,0-.327-.126,1.62,1.62,0,0,0-.428-.056,1.093,1.093,0,0,0-.731.235.707.707,0,0,0-.276.552.685.685,0,0,0,.172.475,1.157,1.157,0,0,0,.444.3,5.047,5.047,0,0,0,.6.2,6.543,6.543,0,0,1,.663.214,3.044,3.044,0,0,1,.6.306,1.322,1.322,0,0,1,.445.513,1.879,1.879,0,0,1-.385,2.121,2.184,2.184,0,0,1-1.539.513,2.834,2.834,0,0,1-.763-.1,2.44,2.44,0,0,1-.6-.24,3.309,3.309,0,0,1-.405-.28,1.873,1.873,0,0,1-.25-.235l-.082-.107.586-.611a.7.7,0,0,0,.055.074,1.737,1.737,0,0,0,.176.171,1.7,1.7,0,0,0,.3.214,1.86,1.86,0,0,0,.423.167,2.04,2.04,0,0,0,.559.075,1.253,1.253,0,0,0,.859-.278.884.884,0,0,0,.316-.689A.681.681,0,0,0,746.5,501.3Z" fill="gray"/>
      <path id="パス_96" data-name="パス 96" d="M755.952,502.645v.877H751.72v-6.133h4.15v.877h-3.23v1.621H755.2v.876H752.64v1.882Z" fill="gray"/>
      <path id="パス_97" data-name="パス 97" d="M763.845,497.389v.877h-1.76v5.256h-.921v-5.256H759.4v-.877Z" fill="gray"/>
      <path id="パス_98" data-name="パス 98" d="M768.974,497.389h.921l2.431,6.133h-.961l-.631-1.621h-2.6l-.63,1.621h-.962Zm-.5,3.635H770.4l-.962-2.54Z" fill="gray"/>
      <path id="パス_99" data-name="パス 99" d="M781.018,497.389v6.133h-.794l-3.27-4.422v4.422h-.921v-6.133h.794l3.27,4.426v-4.426Z" fill="gray"/>
    </g>
    <g id="グループ化_228" data-name="グループ化 228">
      <path id="パス_100" data-name="パス 100" d="M738.8,468.575h-6.709a.106.106,0,0,0-.106.107v21.549a.106.106,0,0,0,.106.107H738.8a10.065,10.065,0,0,0,7.467-3.22,10.991,10.991,0,0,0,0-15.322A10.062,10.062,0,0,0,738.8,468.575Zm4.813,16.054a6.392,6.392,0,0,1-4.813,2.1h-2.947a.105.105,0,0,1-.106-.106V472.288a.105.105,0,0,1,.106-.106H738.8a6.389,6.389,0,0,1,4.813,2.1,7.722,7.722,0,0,1,0,10.344Z" fill="#ff322d"/>
      <path id="パス_101" data-name="パス 101" d="M688.134,468.531a11.2,11.2,0,0,0-13.327,13.327,11.06,11.06,0,0,0,8.512,8.512,11.2,11.2,0,0,0,13.327-13.327A11.06,11.06,0,0,0,688.134,468.531Zm-.437,18.178a7.533,7.533,0,0,1-9.229-9.23,7.371,7.371,0,0,1,5.288-5.288,7.533,7.533,0,0,1,9.229,9.23A7.37,7.37,0,0,1,687.7,486.709Z" fill="#222"/>
      <path id="パス_102" data-name="パス 102" d="M712.871,468.531a11.2,11.2,0,0,0-13.327,13.327,11.06,11.06,0,0,0,8.512,8.512,11.194,11.194,0,0,0,13.326-13.327A11.059,11.059,0,0,0,712.871,468.531Zm-.437,18.178a7.533,7.533,0,0,1-9.229-9.23,7.368,7.368,0,0,1,5.288-5.288,7.533,7.533,0,0,1,9.229,9.23A7.371,7.371,0,0,1,712.434,486.709Z" fill="#222"/>
      <circle id="楕円形_10" data-name="楕円形 10" cx="2.659" cy="2.659" r="2.659" transform="translate(724.27 481.177)" fill="#ff322d"/>
      <circle id="楕円形_11" data-name="楕円形 11" cx="2.659" cy="2.659" r="2.659" transform="translate(724.27 472.417)" fill="#ff322d"/>
      <path id="パス_103" data-name="パス 103" d="M660.465,478.022l-6.988-9.4a.105.105,0,0,0-.085-.043h-3.018a.106.106,0,0,0-.106.106v21.551a.106.106,0,0,0,.106.106h3.55a.107.107,0,0,0,.106-.106V475.8a.105.105,0,0,1,.19-.064l6.245,8.381a.106.106,0,0,0,.17,0l6.259-8.383a.106.106,0,0,1,.191.064v14.434a.106.106,0,0,0,.106.106h3.549a.106.106,0,0,0,.106-.106V468.681a.106.106,0,0,0-.106-.106h-3.032a.107.107,0,0,0-.085.043l-6.988,9.4A.106.106,0,0,1,660.465,478.022Z" fill="#222"/>
      <path id="パス_104" data-name="パス 104" d="M771,478.027l-6.993-9.411a.1.1,0,0,0-.081-.041H760.9a.1.1,0,0,0-.1.1v21.561a.1.1,0,0,0,.1.1h3.56a.1.1,0,0,0,.1-.1V475.784a.1.1,0,0,1,.181-.06l6.258,8.4a.1.1,0,0,0,.162,0l6.272-8.4a.1.1,0,0,1,.182.06v14.455a.1.1,0,0,0,.1.1h3.56a.1.1,0,0,0,.1-.1V468.676a.1.1,0,0,0-.1-.1h-3.04a.1.1,0,0,0-.081.041l-6.994,9.411A.1.1,0,0,1,771,478.027Z" fill="#222"/>
      <path id="パス_105" data-name="パス 105" d="M794.14,468.639,785.585,490.2a.1.1,0,0,0,.094.138h3.731a.1.1,0,0,0,.094-.065l2.129-5.47a.1.1,0,0,1,.094-.065h8.453a.1.1,0,0,1,.094.065l2.129,5.47a.1.1,0,0,0,.094.065h3.731a.1.1,0,0,0,.094-.138l-8.555-21.561a.1.1,0,0,0-.094-.064h-3.439A.1.1,0,0,0,794.14,468.639ZM793.092,481l2.773-7.288a.1.1,0,0,1,.189,0L798.816,481a.1.1,0,0,1-.095.137h-5.535A.1.1,0,0,1,793.092,481Z" fill="#222"/>
      <path id="パス_106" data-name="パス 106" d="M823.982,480.313a5.783,5.783,0,0,0,1.752-2.4,7.156,7.156,0,0,0,.444-2.532,6.663,6.663,0,0,0-6.813-6.8H810.63a.1.1,0,0,0-.1.1v21.561a.1.1,0,0,0,.1.1h3.56a.1.1,0,0,0,.1-.1v-7.968a.1.1,0,0,1,.1-.1h2.94a.1.1,0,0,1,.084.045l5.368,8.08a.1.1,0,0,0,.084.045h3.9a.1.1,0,0,0,.084-.157l-5.61-8.447a.1.1,0,0,1,.061-.153A6.362,6.362,0,0,0,823.982,480.313Zm-9.691-8.03a.1.1,0,0,1,.1-.1h4.973a2.847,2.847,0,0,1,2.162.908,3.413,3.413,0,0,1,0,4.564,2.847,2.847,0,0,1-2.162.908h-4.973a.1.1,0,0,1-.1-.1Z" fill="#222"/>
      <path id="パス_107" data-name="パス 107" d="M841.824,477.606l7.9-8.863a.1.1,0,0,0-.075-.168h-4.566a.1.1,0,0,0-.075.034l-8.5,9.592a.1.1,0,0,1-.177-.067v-9.458a.1.1,0,0,0-.1-.1h-3.559a.1.1,0,0,0-.1.1v21.561a.1.1,0,0,0,.1.1h3.559a.1.1,0,0,0,.1-.1v-6.394a.1.1,0,0,1,.025-.067l2.753-3.141a.1.1,0,0,1,.16.01l6.438,9.648a.1.1,0,0,0,.084.045h4.375a.1.1,0,0,0,.083-.158l-8.434-12.451A.1.1,0,0,1,841.824,477.606Z" fill="#222"/>
    </g>
  </g>
</svg>
